<svg width="130" height="133" viewBox="0 0 130 133" fill="none" xmlns="http://www.w3.org/2000/svg">
<g filter="url(#filter0_d_41_60)">
<path d="M67.0492 27.8074C71.2019 20.7826 81.3662 20.7826 85.5188 27.8074L103.186 57.6934C107.413 64.8446 102.258 73.8802 93.9509 73.8802H58.6171C50.3098 73.8802 45.1549 64.8447 49.3823 57.6934L67.0492 27.8074Z" fill="url(#paint0_linear_41_60)"/>
<path d="M85.0884 28.0619L102.755 57.9478C106.786 64.7658 101.871 73.3802 93.9509 73.3802H58.6171C50.697 73.3802 45.7823 64.7658 49.8127 57.9478L67.4796 28.0619C71.4387 21.3645 81.1293 21.3645 85.0884 28.0619Z" stroke="black"/>
</g>
<g filter="url(#filter1_d_41_60)">
<path fill-rule="evenodd" clip-rule="evenodd" d="M102.077 58.3488L84.4102 28.4628C80.7561 22.2813 71.812 22.2813 68.1579 28.4628L50.4909 58.3488C46.7711 64.6415 51.3071 72.5923 58.6171 72.5923H93.9509C101.261 72.5923 105.797 64.6415 102.077 58.3488ZM85.5188 27.8074C81.3662 20.7826 71.2019 20.7826 67.0492 27.8074L49.3823 57.6934C45.1549 64.8447 50.3098 73.8802 58.6171 73.8802H93.9509C102.258 73.8802 107.413 64.8446 103.186 57.6934L85.5188 27.8074Z" fill="url(#paint1_linear_41_60)"/>
<path d="M102.508 58.0943L84.8406 28.2084C80.9929 21.6995 71.5751 21.6995 67.7274 28.2084L50.0605 58.0944C46.1436 64.7204 50.9199 73.0923 58.6171 73.0923H93.9509C101.648 73.0923 106.424 64.7204 102.508 58.0943ZM67.4796 28.0619C71.4387 21.3645 81.1293 21.3645 85.0884 28.0619L102.755 57.9478C106.786 64.7658 101.871 73.3802 93.9509 73.3802H58.6171C50.697 73.3802 45.7823 64.7658 49.8127 57.9478L67.4796 28.0619Z" stroke="black"/>
</g>
<g filter="url(#filter2_d_41_60)">
<path d="M25.0605 47.6432C25.0605 41.7185 29.8635 36.9155 35.7883 36.9155H63.1423C69.067 36.9155 73.87 41.7185 73.87 47.6432V74.9973C73.87 80.922 69.067 85.725 63.1423 85.725H35.7883C29.8635 85.725 25.0605 80.922 25.0605 74.9973V47.6432Z" fill="url(#paint2_linear_41_60)"/>
<path d="M35.7883 37.4155H63.1423C68.7909 37.4155 73.37 41.9946 73.37 47.6432V74.9973C73.37 80.6459 68.7909 85.225 63.1423 85.225H35.7883C30.1397 85.225 25.5605 80.6459 25.5605 74.9973V47.6432C25.5605 41.9946 30.1397 37.4155 35.7883 37.4155Z" stroke="black"/>
</g>
<g filter="url(#filter3_d_41_60)">
<path fill-rule="evenodd" clip-rule="evenodd" d="M63.1423 38.2034H35.7883C30.5748 38.2034 26.3484 42.4298 26.3484 47.6432V74.9973C26.3484 80.2107 30.5748 84.4371 35.7883 84.4371H63.1423C68.3558 84.4371 72.5821 80.2107 72.5821 74.9973V47.6432C72.5821 42.4298 68.3558 38.2034 63.1423 38.2034ZM35.7883 36.9155C29.8635 36.9155 25.0605 41.7185 25.0605 47.6432V74.9973C25.0605 80.922 29.8635 85.725 35.7883 85.725H63.1423C69.067 85.725 73.87 80.922 73.87 74.9973V47.6432C73.87 41.7185 69.067 36.9155 63.1423 36.9155H35.7883Z" fill="url(#paint3_linear_41_60)" shape-rendering="crispEdges"/>
<path d="M63.1423 37.7034H35.7883C30.2986 37.7034 25.8484 42.1536 25.8484 47.6432V74.9973C25.8484 80.4869 30.2986 84.9371 35.7883 84.9371H63.1423C68.6319 84.9371 73.0821 80.4869 73.0821 74.9973V47.6432C73.0821 42.1536 68.6319 37.7034 63.1423 37.7034ZM25.5605 47.6432C25.5605 41.9946 30.1396 37.4155 35.7883 37.4155H63.1423C68.7909 37.4155 73.37 41.9946 73.37 47.6432V74.9973C73.37 80.6459 68.7909 85.225 63.1423 85.225H35.7883C30.1397 85.225 25.5605 80.6459 25.5605 74.9973V47.6432Z" stroke="black" shape-rendering="crispEdges"/>
</g>
<g filter="url(#filter4_d_41_60)">
<path d="M94.8278 85.7913C94.8278 95.8917 86.6398 104.08 76.5394 104.08C66.439 104.08 58.251 95.8917 58.251 85.7913C58.251 75.6909 66.439 67.5029 76.5394 67.5029C86.6398 67.5029 94.8278 75.6909 94.8278 85.7913Z" fill="url(#paint4_linear_41_60)"/>
<path d="M94.3278 85.7913C94.3278 95.6156 86.3636 103.58 76.5394 103.58C66.7151 103.58 58.751 95.6156 58.751 85.7913C58.751 75.9671 66.7151 68.0029 76.5394 68.0029C86.3636 68.0029 94.3278 75.9671 94.3278 85.7913Z" stroke="black"/>
</g>
<g filter="url(#filter5_d_41_60)">
<path fill-rule="evenodd" clip-rule="evenodd" d="M76.5394 102.792C85.9285 102.792 93.5399 95.1804 93.5399 85.7913C93.5399 76.4022 85.9285 68.7908 76.5394 68.7908C67.1503 68.7908 59.5389 76.4022 59.5389 85.7913C59.5389 95.1804 67.1503 102.792 76.5394 102.792ZM76.5394 104.08C86.6398 104.08 94.8278 95.8917 94.8278 85.7913C94.8278 75.6909 86.6398 67.5029 76.5394 67.5029C66.439 67.5029 58.251 75.6909 58.251 85.7913C58.251 95.8917 66.439 104.08 76.5394 104.08Z" fill="url(#paint5_linear_41_60)" shape-rendering="crispEdges"/>
<path d="M76.5394 103.292C86.2046 103.292 94.0399 95.4566 94.0399 85.7913C94.0399 76.1261 86.2046 68.2908 76.5394 68.2908C66.8741 68.2908 59.0389 76.1261 59.0389 85.7913C59.0389 95.4566 66.8741 103.292 76.5394 103.292ZM94.3278 85.7913C94.3278 95.6156 86.3636 103.58 76.5394 103.58C66.7151 103.58 58.751 95.6156 58.751 85.7913C58.751 75.9671 66.7151 68.0029 76.5394 68.0029C86.3636 68.0029 94.3278 75.9671 94.3278 85.7913Z" stroke="black" shape-rendering="crispEdges"/>
</g>
<defs>
<filter id="filter0_d_41_60" x="22.8484" y="0.642286" width="106.871" height="101.391" filterUnits="userSpaceOnUse" color-interpolation-filters="sRGB">
<feFlood flood-opacity="0" result="BackgroundImageFix"/>
<feColorMatrix in="SourceAlpha" type="matrix" values="0 0 0 0 0 0 0 0 0 0 0 0 0 0 0 0 0 0 127 0" result="hardAlpha"/>
<feOffset dy="3.12808"/>
<feGaussianBlur stdDeviation="12.5123"/>
<feComposite in2="hardAlpha" operator="out"/>
<feColorMatrix type="matrix" values="0 0 0 0 0 0 0 0 0 0.776471 0 0 0 0 1 0 0 0 0.58 0"/>
<feBlend mode="normal" in2="BackgroundImageFix" result="effect1_dropShadow_41_60"/>
<feBlend mode="normal" in="SourceGraphic" in2="effect1_dropShadow_41_60" result="shape"/>
</filter>
<filter id="filter1_d_41_60" x="22.8484" y="0.642286" width="106.871" height="101.391" filterUnits="userSpaceOnUse" color-interpolation-filters="sRGB">
<feFlood flood-opacity="0" result="BackgroundImageFix"/>
<feColorMatrix in="SourceAlpha" type="matrix" values="0 0 0 0 0 0 0 0 0 0 0 0 0 0 0 0 0 0 127 0" result="hardAlpha"/>
<feOffset dy="3.12808"/>
<feGaussianBlur stdDeviation="12.5123"/>
<feComposite in2="hardAlpha" operator="out"/>
<feColorMatrix type="matrix" values="0 0 0 0 0 0 0 0 0 0.776471 0 0 0 0 1 0 0 0 0.58 0"/>
<feBlend mode="normal" in2="BackgroundImageFix" result="effect1_dropShadow_41_60"/>
<feBlend mode="normal" in="SourceGraphic" in2="effect1_dropShadow_41_60" result="shape"/>
</filter>
<filter id="filter2_d_41_60" x="0.0359383" y="15.019" width="98.8588" height="98.8585" filterUnits="userSpaceOnUse" color-interpolation-filters="sRGB">
<feFlood flood-opacity="0" result="BackgroundImageFix"/>
<feColorMatrix in="SourceAlpha" type="matrix" values="0 0 0 0 0 0 0 0 0 0 0 0 0 0 0 0 0 0 127 0" result="hardAlpha"/>
<feOffset dy="3.12808"/>
<feGaussianBlur stdDeviation="12.5123"/>
<feComposite in2="hardAlpha" operator="out"/>
<feColorMatrix type="matrix" values="0 0 0 0 0.92549 0 0 0 0 0.298039 0 0 0 0 0.858824 0 0 0 0.58 0"/>
<feBlend mode="normal" in2="BackgroundImageFix" result="effect1_dropShadow_41_60"/>
<feBlend mode="normal" in="SourceGraphic" in2="effect1_dropShadow_41_60" result="shape"/>
</filter>
<filter id="filter3_d_41_60" x="0.0359383" y="15.019" width="98.8588" height="98.8585" filterUnits="userSpaceOnUse" color-interpolation-filters="sRGB">
<feFlood flood-opacity="0" result="BackgroundImageFix"/>
<feColorMatrix in="SourceAlpha" type="matrix" values="0 0 0 0 0 0 0 0 0 0 0 0 0 0 0 0 0 0 127 0" result="hardAlpha"/>
<feOffset dy="3.12808"/>
<feGaussianBlur stdDeviation="12.5123"/>
<feComposite in2="hardAlpha" operator="out"/>
<feColorMatrix type="matrix" values="0 0 0 0 0.92549 0 0 0 0 0.298039 0 0 0 0 0.858824 0 0 0 0.58 0"/>
<feBlend mode="normal" in2="BackgroundImageFix" result="effect1_dropShadow_41_60"/>
<feBlend mode="normal" in="SourceGraphic" in2="effect1_dropShadow_41_60" result="shape"/>
</filter>
<filter id="filter4_d_41_60" x="33.2264" y="45.6064" width="86.6264" height="86.6261" filterUnits="userSpaceOnUse" color-interpolation-filters="sRGB">
<feFlood flood-opacity="0" result="BackgroundImageFix"/>
<feColorMatrix in="SourceAlpha" type="matrix" values="0 0 0 0 0 0 0 0 0 0 0 0 0 0 0 0 0 0 127 0" result="hardAlpha"/>
<feOffset dy="3.12808"/>
<feGaussianBlur stdDeviation="12.5123"/>
<feComposite in2="hardAlpha" operator="out"/>
<feColorMatrix type="matrix" values="0 0 0 0 0.92549 0 0 0 0 0.298039 0 0 0 0 0.858824 0 0 0 0.58 0"/>
<feBlend mode="normal" in2="BackgroundImageFix" result="effect1_dropShadow_41_60"/>
<feBlend mode="normal" in="SourceGraphic" in2="effect1_dropShadow_41_60" result="shape"/>
</filter>
<filter id="filter5_d_41_60" x="33.2264" y="45.6064" width="86.6264" height="86.6261" filterUnits="userSpaceOnUse" color-interpolation-filters="sRGB">
<feFlood flood-opacity="0" result="BackgroundImageFix"/>
<feColorMatrix in="SourceAlpha" type="matrix" values="0 0 0 0 0 0 0 0 0 0 0 0 0 0 0 0 0 0 127 0" result="hardAlpha"/>
<feOffset dy="3.12808"/>
<feGaussianBlur stdDeviation="12.5123"/>
<feComposite in2="hardAlpha" operator="out"/>
<feColorMatrix type="matrix" values="0 0 0 0 0.92549 0 0 0 0 0.298039 0 0 0 0 0.858824 0 0 0 0.58 0"/>
<feBlend mode="normal" in2="BackgroundImageFix" result="effect1_dropShadow_41_60"/>
<feBlend mode="normal" in="SourceGraphic" in2="effect1_dropShadow_41_60" result="shape"/>
</filter>
<linearGradient id="paint0_linear_41_60" x1="25.8141" y1="-5.9684" x2="126.029" y2="9.5022" gradientUnits="userSpaceOnUse">
<stop stop-color="#00C6FF"/>
<stop offset="1" stop-color="#0078FF"/>
</linearGradient>
<linearGradient id="paint1_linear_41_60" x1="36.2338" y1="15.022" x2="126.571" y2="27.4495" gradientUnits="userSpaceOnUse">
<stop stop-color="#0078FF"/>
<stop offset="1" stop-color="#00C6FF"/>
</linearGradient>
<linearGradient id="paint2_linear_41_60" x1="20.2173" y1="26.1438" x2="78.3558" y2="34.9094" gradientUnits="userSpaceOnUse">
<stop stop-color="#F58529"/>
<stop offset="1" stop-color="#EE4CDB"/>
</linearGradient>
<linearGradient id="paint3_linear_41_60" x1="26.2556" y1="38.5986" x2="78.6524" y2="45.6385" gradientUnits="userSpaceOnUse">
<stop stop-color="#F58529" stop-opacity="0.56"/>
<stop offset="1" stop-color="#DD2A7C"/>
</linearGradient>
<linearGradient id="paint4_linear_41_60" x1="54.6216" y1="59.4308" x2="98.1893" y2="65.9996" gradientUnits="userSpaceOnUse">
<stop stop-color="#5EF529"/>
<stop offset="1" stop-color="#4C97EE"/>
</linearGradient>
<linearGradient id="paint5_linear_41_60" x1="59.1465" y1="68.7642" x2="98.4116" y2="74.0397" gradientUnits="userSpaceOnUse">
<stop stop-color="#46F529" stop-opacity="0.56"/>
<stop offset="1" stop-color="#2A7CDD"/>
</linearGradient>
</defs>
</svg>
